<svg width="37" height="36" viewBox="0 0 37 36" fill="none" xmlns="http://www.w3.org/2000/svg">
    <path d="M2.5 18C2.5 26.8366 9.66344 34 18.5 34C27.3366 34 34.5 26.8366 34.5 18C34.5 9.16344 27.3366 2 18.5 2C9.66344 2 2.5 9.16344 2.5 18ZM20.1667 10C20.1667 10.9205 19.4205 11.6667 18.5 11.6667C17.5795 11.6667 16.8333 10.9205 16.8333 10C16.8333 9.07953 17.5795 8.33333 18.5 8.33333C19.4205 8.33333 20.1667 9.07953 20.1667 10ZM18.5 14C19.2364 14 19.8333 14.597 19.8333 15.3333L19.8333 26C19.8333 26.7364 19.2364 27.3333 18.5 27.3333C17.7636 27.3333 17.1667 26.7364 17.1667 26L17.1667 15.3333C17.1667 14.597 17.7636 14 18.5 14Z" fill="#ECC26E" />
</svg>